<mxfile host="app.diagrams.net" agent="Mozilla/5.0 (Windows NT 10.0; Win64; x64) AppleWebKit/537.36 (KHTML, like Gecko) Chrome/140.0.0.0 Safari/537.36" version="28.2.3">
  <diagram name="Page-1" id="FuapwNgKwrLi2nfUB71t">
    <mxGraphModel dx="1111" dy="465" grid="1" gridSize="10" guides="1" tooltips="1" connect="1" arrows="1" fold="1" page="1" pageScale="1" pageWidth="850" pageHeight="1100" math="0" shadow="0">
      <root>
        <mxCell id="0" />
        <mxCell id="1" parent="0" />
        <mxCell id="YcfwBVkOoydfdg2oq4Ly-3" value="" style="rounded=1;whiteSpace=wrap;html=1;strokeColor=#2F546C;shadow=1;fillColor=#B3E5FC;" vertex="1" parent="1">
          <mxGeometry x="160" y="80" width="350" height="120" as="geometry" />
        </mxCell>
        <mxCell id="YcfwBVkOoydfdg2oq4Ly-5" value="&lt;h1 style=&quot;margin-top: 0px;&quot;&gt;Smart Contract&lt;/h1&gt;&lt;p&gt;&lt;br&gt;&lt;/p&gt;" style="text;html=1;whiteSpace=wrap;overflow=hidden;rounded=0;" vertex="1" parent="1">
          <mxGeometry x="260" y="80" width="180" height="50" as="geometry" />
        </mxCell>
        <mxCell id="YcfwBVkOoydfdg2oq4Ly-19" style="edgeStyle=orthogonalEdgeStyle;rounded=0;orthogonalLoop=1;jettySize=auto;html=1;entryX=0;entryY=0.5;entryDx=0;entryDy=0;" edge="1" parent="1" source="YcfwBVkOoydfdg2oq4Ly-15" target="YcfwBVkOoydfdg2oq4Ly-16">
          <mxGeometry relative="1" as="geometry" />
        </mxCell>
        <mxCell id="YcfwBVkOoydfdg2oq4Ly-15" value="Auto Executed" style="rounded=1;whiteSpace=wrap;html=1;fillColor=#B3E5FC;" vertex="1" parent="1">
          <mxGeometry x="295" y="130" width="80" height="40" as="geometry" />
        </mxCell>
        <mxCell id="YcfwBVkOoydfdg2oq4Ly-16" value="Deployed to all nodes" style="rounded=1;whiteSpace=wrap;html=1;fillColor=#B3E5FC;" vertex="1" parent="1">
          <mxGeometry x="415" y="130" width="80" height="40" as="geometry" />
        </mxCell>
        <mxCell id="YcfwBVkOoydfdg2oq4Ly-18" style="edgeStyle=orthogonalEdgeStyle;rounded=0;orthogonalLoop=1;jettySize=auto;html=1;entryX=0;entryY=0.5;entryDx=0;entryDy=0;" edge="1" parent="1" source="YcfwBVkOoydfdg2oq4Ly-17" target="YcfwBVkOoydfdg2oq4Ly-15">
          <mxGeometry relative="1" as="geometry" />
        </mxCell>
        <mxCell id="YcfwBVkOoydfdg2oq4Ly-17" value="Code + Logic" style="rounded=1;whiteSpace=wrap;html=1;fillColor=#B3E5FC;" vertex="1" parent="1">
          <mxGeometry x="175" y="130" width="80" height="40" as="geometry" />
        </mxCell>
        <mxCell id="YcfwBVkOoydfdg2oq4Ly-22" value="" style="verticalLabelPosition=bottom;html=1;verticalAlign=top;align=center;strokeColor=none;fillColor=#00BEF2;shape=mxgraph.azure.computer;pointerEvents=1;" vertex="1" parent="1">
          <mxGeometry x="160" y="280" width="40" height="45" as="geometry" />
        </mxCell>
        <mxCell id="YcfwBVkOoydfdg2oq4Ly-27" value="" style="verticalLabelPosition=bottom;html=1;verticalAlign=top;align=center;strokeColor=none;fillColor=#00BEF2;shape=mxgraph.azure.computer;pointerEvents=1;" vertex="1" parent="1">
          <mxGeometry x="320" y="280" width="40" height="45" as="geometry" />
        </mxCell>
        <mxCell id="YcfwBVkOoydfdg2oq4Ly-29" value="" style="verticalLabelPosition=bottom;html=1;verticalAlign=top;align=center;strokeColor=none;fillColor=#00BEF2;shape=mxgraph.azure.computer;pointerEvents=1;" vertex="1" parent="1">
          <mxGeometry x="480" y="280" width="40" height="45" as="geometry" />
        </mxCell>
        <mxCell id="YcfwBVkOoydfdg2oq4Ly-30" value="Node 1" style="text;html=1;align=center;verticalAlign=middle;resizable=0;points=[];autosize=1;strokeColor=#7F10FF;fillColor=none;shadow=1;" vertex="1" parent="1">
          <mxGeometry x="150" y="340" width="60" height="30" as="geometry" />
        </mxCell>
        <mxCell id="YcfwBVkOoydfdg2oq4Ly-31" value="" style="endArrow=classic;startArrow=classic;html=1;rounded=0;fillColor=#2727FF;strokeColor=#71A5FF;" edge="1" parent="1">
          <mxGeometry width="50" height="50" relative="1" as="geometry">
            <mxPoint x="210" y="300" as="sourcePoint" />
            <mxPoint x="300" y="301.5" as="targetPoint" />
          </mxGeometry>
        </mxCell>
        <mxCell id="YcfwBVkOoydfdg2oq4Ly-35" value="" style="endArrow=classic;startArrow=classic;html=1;rounded=0;fillColor=#2727FF;strokeColor=#71A5FF;" edge="1" parent="1">
          <mxGeometry width="50" height="50" relative="1" as="geometry">
            <mxPoint x="370" y="300" as="sourcePoint" />
            <mxPoint x="470" y="301.5" as="targetPoint" />
          </mxGeometry>
        </mxCell>
        <mxCell id="YcfwBVkOoydfdg2oq4Ly-38" value="Node 2" style="text;html=1;align=center;verticalAlign=middle;resizable=0;points=[];autosize=1;strokeColor=#7F10FF;fillColor=none;shadow=1;" vertex="1" parent="1">
          <mxGeometry x="315" y="340" width="60" height="30" as="geometry" />
        </mxCell>
        <mxCell id="YcfwBVkOoydfdg2oq4Ly-39" value="Node 3" style="text;html=1;align=center;verticalAlign=middle;resizable=0;points=[];autosize=1;strokeColor=#7F10FF;fillColor=none;shadow=1;" vertex="1" parent="1">
          <mxGeometry x="470" y="340" width="60" height="30" as="geometry" />
        </mxCell>
        <mxCell id="YcfwBVkOoydfdg2oq4Ly-40" value="" style="endArrow=none;html=1;rounded=0;" edge="1" parent="1">
          <mxGeometry width="50" height="50" relative="1" as="geometry">
            <mxPoint x="180" y="240" as="sourcePoint" />
            <mxPoint x="490" y="240" as="targetPoint" />
          </mxGeometry>
        </mxCell>
        <mxCell id="YcfwBVkOoydfdg2oq4Ly-42" value="" style="endArrow=classic;html=1;rounded=0;" edge="1" parent="1">
          <mxGeometry width="50" height="50" relative="1" as="geometry">
            <mxPoint x="339.5" y="240" as="sourcePoint" />
            <mxPoint x="339.5" y="280" as="targetPoint" />
          </mxGeometry>
        </mxCell>
        <mxCell id="YcfwBVkOoydfdg2oq4Ly-43" value="" style="endArrow=classic;html=1;rounded=0;" edge="1" parent="1">
          <mxGeometry width="50" height="50" relative="1" as="geometry">
            <mxPoint x="179.5" y="240" as="sourcePoint" />
            <mxPoint x="180" y="280" as="targetPoint" />
          </mxGeometry>
        </mxCell>
        <mxCell id="YcfwBVkOoydfdg2oq4Ly-44" value="" style="endArrow=classic;html=1;rounded=0;" edge="1" parent="1">
          <mxGeometry width="50" height="50" relative="1" as="geometry">
            <mxPoint x="490" y="240" as="sourcePoint" />
            <mxPoint x="490" y="280" as="targetPoint" />
          </mxGeometry>
        </mxCell>
        <mxCell id="YcfwBVkOoydfdg2oq4Ly-45" value="" style="endArrow=classic;startArrow=classic;html=1;rounded=0;entryX=0.514;entryY=1;entryDx=0;entryDy=0;entryPerimeter=0;" edge="1" parent="1" target="YcfwBVkOoydfdg2oq4Ly-3">
          <mxGeometry width="50" height="50" relative="1" as="geometry">
            <mxPoint x="340" y="240" as="sourcePoint" />
            <mxPoint x="340" y="210" as="targetPoint" />
          </mxGeometry>
        </mxCell>
        <mxCell id="YcfwBVkOoydfdg2oq4Ly-46" value="&lt;b&gt;Deployment&lt;/b&gt;" style="text;html=1;align=center;verticalAlign=middle;resizable=0;points=[];autosize=1;strokeColor=none;fillColor=none;shadow=1;" vertex="1" parent="1">
          <mxGeometry x="210" y="208" width="90" height="30" as="geometry" />
        </mxCell>
        <mxCell id="YcfwBVkOoydfdg2oq4Ly-48" value="Every node holds a copy of the ledger" style="text;html=1;align=center;verticalAlign=middle;resizable=0;points=[];autosize=1;strokeColor=none;fillColor=none;" vertex="1" parent="1">
          <mxGeometry x="530" y="280" width="220" height="30" as="geometry" />
        </mxCell>
        <mxCell id="YcfwBVkOoydfdg2oq4Ly-49" value="Figure 1.7: Smart Contract Deployment" style="text;html=1;align=center;verticalAlign=middle;resizable=0;points=[];autosize=1;strokeColor=none;fillColor=none;" vertex="1" parent="1">
          <mxGeometry x="265" y="390" width="230" height="30" as="geometry" />
        </mxCell>
      </root>
    </mxGraphModel>
  </diagram>
</mxfile>
